<svg width="20" height="20" viewBox="0 0 20 20" fill="none" xmlns="http://www.w3.org/2000/svg">
<path d="M6.95842 2.25016L14.2709 9.56266C14.3418 9.6335 14.3876 9.70016 14.4167 9.771C14.4459 9.84183 14.4584 9.91683 14.4584 10.0002C14.4584 10.0835 14.4459 10.1585 14.4167 10.2293C14.3876 10.3002 14.3418 10.3668 14.2709 10.4377L6.95842 17.7502C6.80425 17.9043 6.61258 17.9793 6.37508 17.9793C6.13758 17.9793 5.94592 17.9043 5.79175 17.7502C5.62508 17.5835 5.54175 17.3835 5.54175 17.1585C5.54175 16.9335 5.62508 16.7293 5.79175 16.5668L12.3542 10.0002L5.79175 3.43766C5.61258 3.2585 5.52925 3.05433 5.54175 2.8335C5.55425 2.61266 5.63758 2.42516 5.79175 2.271C5.95842 2.10433 6.15425 2.021 6.38342 2.021C6.61675 2.021 6.80842 2.096 6.95842 2.25016Z" fill="black"/>
</svg>
