<svg width="48" height="48" viewBox="0 0 48 48" fill="none" xmlns="http://www.w3.org/2000/svg">
<path d="M31.2998 42.6L13.7498 25.05C13.5798 24.88 13.4698 24.72 13.3998 24.55C13.3298 24.38 13.2998 24.2 13.2998 24C13.2998 23.8 13.3298 23.62 13.3998 23.45C13.4698 23.28 13.5798 23.12 13.7498 22.95L31.2998 5.40001C31.6698 5.03001 32.1298 4.85001 32.6998 4.85001C33.2698 4.85001 33.7298 5.03001 34.0998 5.40001C34.4998 5.80001 34.6998 6.28001 34.6998 6.82001C34.6998 7.37001 34.4998 7.85001 34.0998 8.25001L18.3498 24L34.0998 39.75C34.5298 40.18 34.7298 40.67 34.6998 41.2C34.6698 41.73 34.4698 42.18 34.0998 42.55C33.6998 42.95 33.2298 43.15 32.6798 43.15C32.1198 43.15 31.6598 42.97 31.2998 42.6Z" fill="black"/>
</svg>
