<svg width="419" height="251" viewBox="0 0 419 251" fill="none" xmlns="http://www.w3.org/2000/svg">
<g clip-path="url(#clip0_1458_19441)">
<path d="M4.74725 51C7.36672 51 9.49451 48.859 9.49451 46.2233C9.49451 39.9027 14.6063 34.7592 20.8964 34.7592C21.8374 34.7592 22.8462 34.9298 24.1008 35.2965C25.6945 35.7657 27.4323 35.3562 28.6531 34.2218C29.8823 33.0788 30.4163 31.3813 30.0772 29.7436C29.8399 28.6177 29.7297 27.4576 29.7297 26.3231C29.7297 17.0768 37.2066 9.55344 46.3959 9.55344C55.5852 9.55344 63.0622 17.0768 63.0537 26.5534C63.0537 26.5961 63.0198 27.0055 63.0198 27.0567C62.9265 29.1721 64.232 31.0998 66.2157 31.7908C70.8358 33.3858 73.9385 37.719 73.9385 42.581C73.9385 45.2168 76.0578 47.3578 78.6857 47.3578H103.253C105.872 47.3578 108 45.2168 108 42.581C108 39.9453 105.881 37.8043 103.253 37.8043H82.8819C81.5256 32.0125 77.7363 27.0226 72.4634 24.1565C71.3614 10.6453 60.0867 0 46.3874 0C32.3322 0 20.837 11.2168 20.2521 25.2142C9.02826 25.5554 0 34.853 0 46.2233C0 48.859 2.11931 51 4.74725 51Z" fill="#EEEEEE"/>
</g>
<g clip-path="url(#clip1_1458_19441)">
<path d="M305.965 99.8893H296.448V90.2782C296.448 88.5098 295.031 87.0745 293.276 87.0745H274.241V77.4634C274.241 75.695 272.824 74.2597 271.069 74.2597H258.379V55.0375C258.379 53.269 256.962 51.8338 255.207 51.8338H250.001C249.286 51.8338 248.597 52.0754 248.039 52.5184C241.125 58.0105 236.024 65.1539 232.993 73.154C226.14 55.0997 208.843 42.2227 188.586 42.2227C162.348 42.2227 141 63.7808 141 90.2782C141 90.2929 141.011 90.3038 141.011 90.3185C141.011 90.3331 141 90.3405 141 90.3551C142.204 140.003 227.703 193.284 231.347 195.528C231.854 195.843 232.427 196 233 196C233.551 196 234.106 195.858 234.603 195.561C236.564 194.404 282.896 166.79 308.493 132.53C308.913 131.974 309.138 131.297 309.138 130.601V103.093C309.134 101.325 307.717 99.8857 305.965 99.8893ZM302.793 129.521C280.496 158.841 241.477 183.819 233.036 189.037C221.18 181.406 148.429 132.853 147.348 90.2453C147.367 67.2958 165.854 48.6301 188.586 48.6301C211.322 48.6301 229.828 67.3141 229.828 90.2782V103.093C229.828 104.861 231.249 106.297 233 106.297H242.517V112.704C242.517 114.473 243.935 115.908 245.69 115.908H252.034V125.519C252.034 127.287 253.452 128.723 255.207 128.723C256.962 128.723 258.379 127.287 258.379 125.519V112.704C258.379 110.936 256.962 109.5 255.207 109.5H248.862V103.093C248.862 101.325 247.444 99.8893 245.69 99.8893H236.172V90.2782C236.172 77.8149 241.607 66.201 251.124 58.2412H252.034V77.4634C252.034 79.2318 253.452 80.6671 255.207 80.6671H267.897V90.2782C267.897 92.0467 269.314 93.4819 271.069 93.4819H290.103V103.093C290.103 104.861 291.521 106.297 293.276 106.297H302.793V129.521Z" fill="#4CB087"/>
<path d="M309.137 61.4443C307.382 61.4443 305.965 62.8796 305.965 64.648V67.8517C305.965 69.6202 307.382 71.0554 309.137 71.0554C310.892 71.0554 312.31 69.6202 312.31 67.8517V64.648C312.31 62.8796 310.888 61.4443 309.137 61.4443Z" fill="#4CB087"/>
<path d="M321.827 74.2588H318.655C316.9 74.2588 315.482 75.694 315.482 77.4625C315.482 79.2309 316.9 80.6662 318.655 80.6662H321.827C323.582 80.6662 325 79.2309 325 77.4625C325 75.694 323.578 74.2588 321.827 74.2588Z" fill="#4CB087"/>
<path d="M309.137 83.8701C307.382 83.8701 305.965 85.3054 305.965 87.0738V90.2775C305.965 92.046 307.382 93.4812 309.137 93.4812C310.892 93.4812 312.31 92.046 312.31 90.2775V87.0738C312.31 85.3054 310.888 83.8701 309.137 83.8701Z" fill="#4CB087"/>
<path d="M296.448 74.2588C294.693 74.2588 293.275 75.694 293.275 77.4625C293.275 79.2309 294.693 80.6662 296.448 80.6662H299.62C301.375 80.6662 302.793 79.2309 302.793 77.4625C302.793 75.694 301.375 74.2588 299.62 74.2588H296.448Z" fill="#4CB087"/>
<path d="M312.31 77.4625C312.31 79.2309 310.888 80.6662 309.137 80.6662C307.386 80.6662 305.965 79.2309 305.965 77.4625C305.965 75.694 307.386 74.2588 309.137 74.2588C310.888 74.2588 312.31 75.694 312.31 77.4625Z" fill="#4CB087"/>
<path d="M283.758 32.6111C285.513 32.6111 286.931 31.1759 286.931 29.4074V26.2037C286.931 24.4353 285.513 23 283.758 23C282.004 23 280.586 24.4353 280.586 26.2037V29.4074C280.586 31.1759 282.004 32.6111 283.758 32.6111Z" fill="#4CB087"/>
<path d="M293.276 42.2219H296.448C298.203 42.2219 299.621 40.7866 299.621 39.0182C299.621 37.2497 298.2 35.8145 296.448 35.8145H293.276C291.521 35.8145 290.104 37.2497 290.104 39.0182C290.104 40.7866 291.521 42.2219 293.276 42.2219Z" fill="#4CB087"/>
<path d="M283.758 55.0369C285.513 55.0369 286.931 53.6016 286.931 51.8332V48.6295C286.931 46.861 285.513 45.4258 283.758 45.4258C282.004 45.4258 280.586 46.861 280.586 48.6295V51.8332C280.586 53.6016 282.004 55.0369 283.758 55.0369Z" fill="#4CB087"/>
<path d="M271.069 42.2219H274.241C275.996 42.2219 277.414 40.7866 277.414 39.0182C277.414 37.2497 275.996 35.8145 274.241 35.8145H271.069C269.314 35.8145 267.896 37.2497 267.896 39.0182C267.896 40.7866 269.314 42.2219 271.069 42.2219Z" fill="#4CB087"/>
<path d="M286.931 39.0182C286.931 40.7866 285.51 42.2219 283.758 42.2219C282.007 42.2219 280.586 40.7866 280.586 39.0182C280.586 37.2497 282.007 35.8145 283.758 35.8145C285.51 35.8145 286.931 37.2497 286.931 39.0182Z" fill="#4CB087"/>
<path d="M233.939 163.804C234.469 164.595 234.752 165.525 234.752 166.477C234.752 167.75 234.246 168.971 233.345 169.873C232.444 170.774 231.222 171.283 229.946 171.286C228.993 171.289 228.06 171.009 227.265 170.482C226.471 169.955 225.851 169.205 225.485 168.327C225.118 167.448 225.02 166.481 225.205 165.547C225.389 164.613 225.847 163.755 226.521 163.081C227.194 162.407 228.053 161.948 228.988 161.761C229.923 161.575 230.893 161.669 231.774 162.033C232.655 162.396 233.409 163.013 233.939 163.804Z" fill="#DDDDDD"/>
<path d="M226.921 157.082C226.177 156.457 225.678 155.589 225.513 154.632L225.513 122.629C225.678 121.672 226.177 120.804 226.921 120.178C227.665 119.553 228.607 119.21 229.58 119.21C230.553 119.21 231.495 119.553 232.239 120.178C232.983 120.804 233.482 121.672 233.647 122.629L233.647 154.632C233.482 155.589 232.983 156.457 232.239 157.082C231.495 157.708 230.553 158.051 229.58 158.051C228.607 158.051 227.665 157.708 226.921 157.082Z" fill="#DDDDDD"/>
</g>
<path d="M392.529 25.8436C393.319 25.2936 394.248 25 395.198 25C396.469 25 397.689 25.5249 398.589 26.4596C399.489 27.3943 399.996 28.6625 400 29.9862C400.003 30.9757 399.723 31.9437 399.197 32.7678C398.671 33.5918 397.922 34.2349 397.045 34.6154C396.168 34.996 395.202 35.097 394.269 34.9056C393.337 34.7142 392.48 34.2391 391.807 33.5404C391.134 32.8417 390.675 31.9508 390.489 30.9805C390.303 30.0103 390.397 29.0042 390.76 28.0898C391.123 27.1754 391.739 26.3936 392.529 25.8436Z" fill="#EEEEEE"/>
<path d="M385.817 33.1247C385.193 33.8968 384.326 34.4142 383.37 34.5856L351.414 34.5856C350.459 34.4142 349.592 33.8968 348.967 33.1247C348.343 32.3527 348 31.3756 348 30.366C348 29.3565 348.343 28.3794 348.967 27.6073C349.592 26.8352 350.459 26.3178 351.414 26.1464L383.37 26.1464C384.326 26.3178 385.193 26.8352 385.817 27.6073C386.442 28.3794 386.785 29.3565 386.785 30.366C386.785 31.3756 386.442 32.3527 385.817 33.1247Z" fill="#EEEEEE"/>
<path d="M392.529 38.8436C393.319 38.2936 394.248 38 395.198 38C396.469 38 397.689 38.5249 398.589 39.4596C399.489 40.3943 399.996 41.6625 400 42.9862C400.003 43.9757 399.723 44.9437 399.197 45.7678C398.671 46.5918 397.922 47.2349 397.045 47.6154C396.168 47.996 395.202 48.097 394.269 47.9056C393.337 47.7142 392.48 47.2391 391.807 46.5404C391.134 45.8417 390.675 44.9508 390.489 43.9805C390.303 43.0103 390.397 42.0042 390.76 41.0898C391.123 40.1754 391.739 39.3936 392.529 38.8436Z" fill="#EEEEEE"/>
<path d="M385.817 46.1247C385.193 46.8968 384.326 47.4142 383.37 47.5856L351.414 47.5856C350.459 47.4142 349.592 46.8968 348.967 46.1247C348.343 45.3527 348 44.3756 348 43.366C348 42.3565 348.343 41.3794 348.967 40.6073C349.592 39.8352 350.459 39.3178 351.414 39.1464L383.37 39.1464C384.326 39.3178 385.193 39.8352 385.817 40.6073C386.442 41.3794 386.785 42.3565 386.785 43.366C386.785 44.3756 386.442 45.3527 385.817 46.1247Z" fill="#EEEEEE"/>
<path d="M392.529 51.8436C393.319 51.2936 394.248 51 395.198 51C396.469 51 397.689 51.5249 398.589 52.4596C399.489 53.3943 399.996 54.6625 400 55.9862C400.003 56.9757 399.723 57.9437 399.197 58.7678C398.671 59.5918 397.922 60.2349 397.045 60.6154C396.168 60.996 395.202 61.097 394.269 60.9056C393.337 60.7142 392.48 60.2391 391.807 59.5404C391.134 58.8417 390.675 57.9508 390.489 56.9805C390.303 56.0103 390.397 55.0042 390.76 54.0898C391.123 53.1754 391.739 52.3936 392.529 51.8436Z" fill="#EEEEEE"/>
<path d="M385.817 59.1247C385.193 59.8968 384.326 60.4142 383.37 60.5856L351.414 60.5856C350.459 60.4142 349.592 59.8968 348.967 59.1247C348.343 58.3527 348 57.3756 348 56.366C348 55.3565 348.343 54.3794 348.967 53.6073C349.592 52.8352 350.459 52.3178 351.414 52.1464L383.37 52.1464C384.326 52.3178 385.193 52.8352 385.817 53.6073C386.442 54.3794 386.785 55.3565 386.785 56.366C386.785 57.3756 386.442 58.3527 385.817 59.1247Z" fill="#EEEEEE"/>
<path d="M299.636 216.607C295.069 216.607 291.357 220.339 291.357 224.931C291.357 229.523 295.069 233.256 299.636 233.256H325.562C328.09 233.188 330.221 232.267 331.695 230.591C333.011 229.092 333.737 227.085 333.737 224.931C333.737 222.781 333.011 220.767 331.695 219.271C330.225 217.599 328.097 216.675 325.551 216.607H299.636Z" fill="#EEEEEE"/>
<path d="M353.368 216.607C348.802 216.607 345.09 220.343 345.09 224.931C345.09 229.52 348.802 233.256 353.368 233.256H379.294C381.823 233.188 383.954 232.267 385.427 230.591C386.743 229.092 387.469 227.085 387.469 224.931C387.469 222.781 386.743 220.767 385.427 219.271C383.957 217.599 381.83 216.675 379.284 216.607H353.368ZM353.368 229.192C351.033 229.192 349.131 227.279 349.131 224.931C349.131 222.583 351.033 220.67 353.368 220.67H379.294C381.63 220.67 383.532 222.583 383.532 224.931C383.532 227.279 381.63 229.192 379.294 229.192H353.368Z" fill="#EEEEEE"/>
<path d="M81.3488 216.607C76.7822 216.607 73.0703 220.339 73.0703 224.931C73.0703 229.523 76.7822 233.256 81.3488 233.256H107.275C109.803 233.188 111.934 232.267 113.408 230.591C114.724 229.092 115.45 227.085 115.45 224.931C115.45 222.781 114.724 220.767 113.408 219.271C111.938 217.599 109.81 216.675 107.264 216.607H81.3488Z" fill="#EEEEEE"/>
<path d="M135.079 216.607C130.513 216.607 126.801 220.343 126.801 224.931C126.801 229.52 130.513 233.256 135.079 233.256H161.005C163.534 233.188 165.665 232.267 167.138 230.591C168.454 229.092 169.18 227.085 169.18 224.931C169.18 222.781 168.454 220.767 167.138 219.271C165.668 217.599 163.541 216.675 160.995 216.607H135.079ZM135.079 229.192C132.744 229.192 130.842 227.279 130.842 224.931C130.842 222.583 132.744 220.67 135.079 220.67H161.005C163.34 220.67 165.243 222.583 165.243 224.931C165.243 227.279 163.34 229.192 161.005 229.192H135.079Z" fill="#EEEEEE"/>
<path d="M188.849 216.607C184.265 216.607 180.533 220.343 180.533 224.931C180.533 229.52 184.265 233.256 188.849 233.256H218.485C221.024 233.188 223.165 232.267 224.645 230.591C225.967 229.092 226.696 227.085 226.696 224.931C226.696 222.781 225.967 220.767 224.645 219.271C223.169 217.599 221.031 216.675 218.474 216.607H188.849Z" fill="#EEEEEE"/>
<path d="M246.325 216.607C241.762 216.607 238.047 220.343 238.047 224.931C238.047 229.52 241.762 233.256 246.325 233.256H272.251C274.78 233.188 276.911 232.267 278.384 230.591C279.7 229.092 280.426 227.085 280.426 224.931C280.426 222.781 279.7 220.767 278.384 219.271C276.915 217.599 274.787 216.675 272.241 216.607H246.325ZM246.325 229.192C243.99 229.192 242.088 227.279 242.088 224.931C242.088 222.583 243.99 220.67 246.325 220.67H272.251C274.587 220.67 276.489 222.583 276.489 224.931C276.489 227.279 274.587 229.192 272.251 229.192H246.325Z" fill="#EEEEEE"/>
<path fill-rule="evenodd" clip-rule="evenodd" d="M84 148.674V192.326C84 194.354 82.208 196 80 196C77.792 196 76 194.354 76 192.326V148.674C76 146.65 77.792 145 80 145C82.208 145 84 146.646 84 148.674Z" fill="#EEEEEE"/>
<path fill-rule="evenodd" clip-rule="evenodd" d="M46.0084 122.181C46.0084 119.215 47.1835 116.371 49.281 114.278C51.3701 112.181 54.2089 111 57.1656 111H96.7279C99.9079 111 102.936 112.363 105.055 114.738C107.207 117.152 110.522 120.873 113.167 123.848C116.785 127.907 116.957 133.992 113.571 138.253L105.198 148.785C103.079 151.451 99.8658 153 96.4668 153H57.1614C54.2005 153 51.3617 151.823 49.2726 149.726C47.1793 147.633 46 144.785 46 141.823L46.0084 122.181ZM53.3792 122.181V141.823C53.3792 142.831 53.7793 143.793 54.4911 144.506C55.2029 145.219 56.1632 145.616 57.1698 145.616H96.4752C97.6251 145.616 98.7159 145.089 99.4404 144.186L107.809 133.65C108.955 132.203 108.9 130.139 107.67 128.759L99.5541 119.65C98.8381 118.844 97.8062 118.38 96.7279 118.38H57.1656C56.159 118.38 55.1987 118.781 54.4869 119.494C53.7751 120.207 53.3792 121.173 53.3792 122.181Z" fill="#EEEEEE"/>
<line x1="41.5" y1="247.5" x2="415.5" y2="247.5" stroke="#EEEEEE" stroke-width="7" stroke-linecap="round"/>
<line x1="41.5" y1="198.5" x2="415.5" y2="198.5" stroke="#EEEEEE" stroke-width="7" stroke-linecap="round"/>
<defs>
<clipPath id="clip0_1458_19441">
<rect width="108" height="51" fill="white"/>
</clipPath>
<clipPath id="clip1_1458_19441">
<rect width="184" height="173" fill="white" transform="translate(141 23)"/>
</clipPath>
</defs>
</svg>
