<svg width="426" height="317" viewBox="0 0 426 317" fill="none" xmlns="http://www.w3.org/2000/svg">
<g clip-path="url(#clip0_1465_19442)">
<path d="M4.74725 141C7.36672 141 9.49451 138.859 9.49451 136.223C9.49451 129.903 14.6063 124.759 20.8964 124.759C21.8374 124.759 22.8462 124.93 24.1008 125.297C25.6945 125.766 27.4323 125.356 28.6531 124.222C29.8823 123.079 30.4163 121.381 30.0772 119.744C29.8399 118.618 29.7297 117.458 29.7297 116.323C29.7297 107.077 37.2066 99.5534 46.3959 99.5534C55.5852 99.5534 63.0622 107.077 63.0537 116.553C63.0537 116.596 63.0198 117.006 63.0198 117.057C62.9265 119.172 64.232 121.1 66.2157 121.791C70.8358 123.386 73.9385 127.719 73.9385 132.581C73.9385 135.217 76.0578 137.358 78.6857 137.358H103.253C105.872 137.358 108 135.217 108 132.581C108 129.945 105.881 127.804 103.253 127.804H82.8819C81.5256 122.013 77.7363 117.023 72.4634 114.157C71.3614 100.645 60.0867 90 46.3874 90C32.3322 90 20.837 101.217 20.2521 115.214C9.02826 115.555 0 124.853 0 136.223C0 138.859 2.11931 141 4.74725 141Z" fill="#EEEEEE"/>
</g>
<path d="M306.636 281C302.069 281 298.357 285.945 298.357 292.028C298.357 298.111 302.069 303.056 306.636 303.056H332.562C335.09 302.965 337.221 301.746 338.695 299.526C340.011 297.539 340.737 294.881 340.737 292.028C340.737 289.179 340.011 286.512 338.695 284.53C337.225 282.315 335.097 281.091 332.551 281H306.636Z" fill="#EEEEEE"/>
<path d="M360.368 281C355.802 281 352.09 285.95 352.09 292.028C352.09 298.106 355.802 303.056 360.368 303.056H386.294C388.823 302.965 390.954 301.746 392.427 299.526C393.743 297.539 394.469 294.881 394.469 292.028C394.469 289.179 393.743 286.512 392.427 284.53C390.957 282.315 388.83 281.091 386.284 281H360.368ZM360.368 297.673C358.033 297.673 356.131 295.139 356.131 292.028C356.131 288.917 358.033 286.383 360.368 286.383H386.294C388.63 286.383 390.532 288.917 390.532 292.028C390.532 295.139 388.63 297.673 386.294 297.673H360.368Z" fill="#EEEEEE"/>
<path d="M88.3488 281C83.7822 281 80.0703 285.945 80.0703 292.028C80.0703 298.111 83.7822 303.056 88.3488 303.056H114.275C116.803 302.965 118.934 301.746 120.408 299.526C121.724 297.539 122.45 294.881 122.45 292.028C122.45 289.179 121.724 286.512 120.408 284.53C118.938 282.315 116.81 281.091 114.264 281H88.3488Z" fill="#EEEEEE"/>
<path d="M142.079 281C137.513 281 133.801 285.95 133.801 292.028C133.801 298.106 137.513 303.056 142.079 303.056H168.005C170.534 302.965 172.665 301.746 174.138 299.526C175.454 297.539 176.18 294.881 176.18 292.028C176.18 289.179 175.454 286.512 174.138 284.53C172.668 282.315 170.541 281.091 167.995 281H142.079ZM142.079 297.673C139.744 297.673 137.842 295.139 137.842 292.028C137.842 288.917 139.744 286.383 142.079 286.383H168.005C170.34 286.383 172.243 288.917 172.243 292.028C172.243 295.139 170.34 297.673 168.005 297.673H142.079Z" fill="#EEEEEE"/>
<path d="M195.849 281C191.265 281 187.533 285.95 187.533 292.028C187.533 298.106 191.265 303.056 195.849 303.056H225.485C228.024 302.965 230.165 301.746 231.645 299.526C232.967 297.539 233.696 294.881 233.696 292.028C233.696 289.179 232.967 286.512 231.645 284.53C230.169 282.315 228.031 281.091 225.474 281H195.849Z" fill="#EEEEEE"/>
<path d="M253.325 281C248.762 281 245.047 285.95 245.047 292.028C245.047 298.106 248.762 303.056 253.325 303.056H279.251C281.78 302.965 283.911 301.746 285.384 299.526C286.7 297.539 287.426 294.881 287.426 292.028C287.426 289.179 286.7 286.512 285.384 284.53C283.915 282.315 281.787 281.091 279.241 281H253.325ZM253.325 297.673C250.99 297.673 249.088 295.139 249.088 292.028C249.088 288.917 250.99 286.383 253.325 286.383H279.251C281.587 286.383 283.489 288.917 283.489 292.028C283.489 295.139 281.587 297.673 279.251 297.673H253.325Z" fill="#EEEEEE"/>
<line x1="48.5" y1="313.5" x2="422.5" y2="313.5" stroke="#EEEEEE" stroke-width="7" stroke-linecap="round"/>
<line x1="48.5" y1="264.5" x2="422.5" y2="264.5" stroke="#EEEEEE" stroke-width="7" stroke-linecap="round"/>
<g clip-path="url(#clip1_1465_19442)">
<path d="M208.6 261V199.16L215.537 202.617C217.696 203.701 220.422 202.846 221.53 200.626C222.633 198.426 221.739 195.748 219.534 194.648L156.998 163.458C155.666 162.858 154.379 162.842 153.129 163.428C153.001 163.458 90.4702 194.643 90.4702 194.643C88.265 195.743 87.3717 198.421 88.4743 200.621C89.5769 202.82 92.2619 203.711 94.4671 202.612L101.404 199.154V260.995M199.667 261H110.337V196.823L155.002 172.521L199.667 196.823V261Z" fill="#EEEEEE"/>
</g>
<g clip-path="url(#clip2_1465_19442)">
<path d="M414.546 178.407C401.267 169.092 384.033 156.389 370.754 147.073C367.364 144.815 364.256 140.298 360.866 141.145C357.758 141.71 355.498 146.508 352.673 149.614C351.542 151.025 350.977 151.872 352.673 153.283C367.081 167.116 384.881 184.053 399.29 197.885C401.832 200.426 404.658 200.708 407.2 198.168C410.591 194.498 413.981 190.263 417.371 186.594C417.936 185.747 418.502 184.9 418.219 183.771C418.219 181.23 416.524 179.819 414.546 178.407ZM304.643 51.6589C275.825 51.6589 252.093 75.089 251.81 103.318C251.81 132.676 275.542 156.106 304.925 156.106C334.026 156.106 357.758 132.959 357.758 104.165C358.041 75.089 334.308 51.6589 304.643 51.6589ZM425 186.029C421.609 191.675 417.089 196.474 412.851 201.273C407.483 207.765 400.702 208.33 394.487 202.402C382.338 190.828 370.472 179.254 358.323 167.398C354.933 164.293 351.825 161.188 348.435 157.8C347.304 156.671 345.327 155.824 346.739 153.283C347.587 151.59 341.654 149.896 340.806 150.743C328.093 159.494 313.966 163.446 298.427 162.034C268.479 159.494 243.899 131.829 245.594 101.907C247.007 74.5244 264.524 53.0704 291.081 46.5777C324.42 38.3913 358.888 61.2568 363.691 94.8493C365.386 106.988 363.691 118.279 358.606 129.289C358.041 130.418 360.301 137.475 363.126 134.935C363.974 134.088 364.821 135.499 365.669 136.064C383.468 148.485 400.985 160.905 418.784 173.326C421.892 175.584 423.587 178.407 425 181.512V186.029Z" fill="#16B976"/>
<path d="M265.372 91.744C265.09 91.744 264.807 91.744 264.525 91.4617C263.112 90.8972 262.264 89.2034 262.829 87.792C269.327 69.7254 286.844 57.5869 306.339 57.5869C308.034 57.5869 309.164 58.7161 309.164 60.4098C309.164 62.1036 308.034 63.2327 306.339 63.2327C289.104 63.2327 273.848 73.9598 268.197 89.768C267.632 90.8972 266.502 91.744 265.372 91.744Z" fill="#EEEEEE"/>
<path d="M349.565 105.859C347.87 105.859 346.74 104.73 346.74 103.036C346.74 93.1561 343.067 83.8405 336.569 76.501C335.439 75.3718 335.721 73.6781 336.852 72.5489C337.982 71.4197 339.677 71.702 340.807 72.8312C348.435 81.2999 352.673 92.0269 352.673 103.036C352.391 104.73 350.978 105.859 349.565 105.859Z" fill="#EEEEEE"/>
<path d="M304.36 25.4061C302.665 25.4061 301.535 24.277 301.535 22.5832V2.8229C301.535 1.12916 302.665 0 304.36 0C306.056 0 307.186 1.12916 307.186 2.8229V22.5832C307.186 23.9947 306.056 25.4061 304.36 25.4061Z" fill="#EEEEEE"/>
<path d="M304.36 212C302.665 212 301.535 210.871 301.535 209.177V189.417C301.535 187.723 302.665 186.594 304.36 186.594C306.056 186.594 307.186 187.723 307.186 189.417V209.177C307.186 210.871 306.056 212 304.36 212Z" fill="#EEEEEE"/>
<path d="M364.538 49.6831C363.691 49.6831 363.126 49.4008 362.56 48.8362C361.43 47.7071 361.43 46.0133 362.56 44.8842L376.687 31.0519C377.817 29.9228 379.512 29.9228 380.642 31.0519C381.772 32.1811 381.772 33.8749 380.642 35.004L366.516 48.8362C365.951 49.4008 365.103 49.6831 364.538 49.6831Z" fill="#EEEEEE"/>
<path d="M230.62 181.795C229.773 181.795 229.208 181.513 228.643 180.949C227.512 179.819 227.512 178.126 228.643 176.996L242.769 163.164C243.899 162.035 245.594 162.035 246.724 163.164C247.854 164.293 247.854 165.987 246.724 167.116L232.598 180.949C232.033 181.513 231.185 181.795 230.62 181.795Z" fill="#EEEEEE"/>
<path d="M409.178 108.682H389.401C387.706 108.682 386.576 107.553 386.576 105.859C386.576 104.165 387.706 103.036 389.401 103.036H409.178C410.874 103.036 412.004 104.165 412.004 105.859C412.004 107.553 410.874 108.682 409.178 108.682Z" fill="#EEEEEE"/>
<path d="M219.602 108.682H199.825C198.13 108.682 197 107.553 197 105.859C197 104.165 198.13 103.036 199.825 103.036H219.602C221.297 103.036 222.428 104.165 222.428 105.859C222.428 107.553 221.297 108.682 219.602 108.682Z" fill="#EEEEEE"/>
<path d="M244.465 49.6831C243.618 49.6831 243.053 49.4008 242.488 48.8362L228.361 35.004C227.231 33.8749 227.231 32.1811 228.361 31.0519C229.491 29.9228 231.187 29.9228 232.317 31.0519L246.443 44.8842C247.573 46.0133 247.573 47.7071 246.443 48.8362C246.161 49.4008 245.313 49.6831 244.465 49.6831Z" fill="#EEEEEE"/>
<path d="M328.78 83.7008C327.163 82.0867 324.482 82.0867 322.872 83.7008L306.862 99.6775L290.859 83.7008C289.242 82.0867 286.561 82.0867 284.951 83.7008C283.334 85.3149 283.334 87.9919 284.951 89.5994L300.954 105.576L284.951 121.559C283.334 123.173 283.334 125.85 284.951 127.458C285.785 128.291 286.85 128.685 287.908 128.685C288.966 128.685 290.024 128.298 290.866 127.458L306.869 111.481L322.872 127.458C323.706 128.291 324.771 128.685 325.829 128.685C326.887 128.685 327.945 128.298 328.787 127.458C330.403 125.844 330.403 123.167 328.787 121.559L312.77 105.583L328.773 89.6059C330.397 87.9919 330.397 85.3149 328.78 83.7008Z" fill="#4CB087"/>
</g>
<defs>
<clipPath id="clip0_1465_19442">
<rect width="108" height="51" fill="white" transform="translate(0 90)"/>
</clipPath>
<clipPath id="clip1_1465_19442">
<rect width="134" height="98" fill="white" transform="translate(88 163)"/>
</clipPath>
<clipPath id="clip2_1465_19442">
<rect width="228" height="212" fill="white" transform="translate(197)"/>
</clipPath>
</defs>
</svg>
