<svg width="80" height="49" viewBox="0 0 80 49" fill="none" xmlns="http://www.w3.org/2000/svg">
<g clip-path="url(#clip0_1015_17821)">
<path d="M21.6421 6.39888C20.5975 6.30736 19.5455 6.35055 18.5117 6.52741C18.3172 6.56041 18.1248 6.60488 17.9355 6.66061C17.2002 6.87695 16.5129 7.23395 15.911 7.71222C15.3624 8.14874 14.9226 8.70898 14.6269 9.34804C14.321 10.0344 14.1685 10.7804 14.1803 11.533C14.1803 12.6407 14.4888 13.5093 15.1058 14.1387C15.7228 14.7681 16.8188 15.2432 18.3937 15.5642C18.8564 15.6577 19.2335 15.7465 19.5228 15.8306C19.7554 15.8942 19.977 15.9935 20.1799 16.125C20.3091 16.2052 20.4109 16.3234 20.4714 16.4639C20.5225 16.6141 20.546 16.7725 20.5408 16.9313C20.5391 17.0904 20.4972 17.2465 20.4191 17.3848C20.3409 17.523 20.2291 17.6388 20.0943 17.7211C19.7535 17.9399 19.3547 18.0483 18.9513 18.0319C17.6864 18.0319 16.3475 17.5435 14.9346 16.5667V21.0325C16.1675 21.5354 17.4829 21.8002 18.8124 21.813C19.7469 21.8226 20.6777 21.6935 21.5751 21.4298C22.3502 21.2085 23.0787 20.8458 23.7245 20.3595C24.3114 19.9076 24.7866 19.3245 25.1128 18.6559C25.4562 17.9463 25.629 17.1648 25.6172 16.3751C25.6354 15.8662 25.5534 15.3587 25.3758 14.8822C25.1983 14.4056 24.9288 13.9694 24.5829 13.5989C23.8965 12.8775 22.8553 12.3751 21.4594 12.0916C20.9581 11.9794 20.5531 11.8851 20.2446 11.8088C20.0028 11.7575 19.7692 11.6726 19.5505 11.5564C19.4206 11.4921 19.3138 11.3883 19.2451 11.2596C19.1923 11.1309 19.1678 10.9922 19.1734 10.853C19.1715 10.6983 19.211 10.5459 19.2875 10.4119C19.364 10.2778 19.4749 10.1671 19.6084 10.0912C19.9528 9.89928 20.3419 9.80406 20.7352 9.81542C21.4409 9.83328 22.139 9.96829 22.8013 10.215C25.6796 10.8577 27.3293 10.0164 28.5857 8.81289V21.2826H33.6343V11.082H36.5056V6.82887H33.6459V2.48926H28.5973C28.3034 5.95254 25.8023 7.01115 21.6421 6.39888Z" fill="#4FBD94"/>
<path d="M11.9667 4.67379H5.46738V8.2282H11.6057V12.902H5.46738V16.5686H11.9667V21.2424H0V0H11.9667V4.67379Z" fill="#4FBD94"/>
<path d="M48.2108 6.7911H53.2871V21.2448H48.2108V19.63C47.131 21.001 45.671 21.6865 43.8308 21.6865C42.8427 21.702 41.8623 21.5086 40.9526 21.1186C40.089 20.741 39.3104 20.19 38.6643 19.4991C38.0035 18.7895 37.4871 17.9558 37.1441 17.0454C36.7728 16.0656 36.5875 15.0238 36.5981 13.9747C36.5936 12.9684 36.7741 11.97 37.1302 11.0302C37.4636 10.1301 37.9656 9.30338 38.6087 8.59519C39.2621 7.87233 40.0598 7.29759 40.9492 6.90887C41.8385 6.52016 42.7994 6.3263 43.7684 6.34008C44.5982 6.31719 45.4234 6.47383 46.1884 6.7995C46.9534 7.12517 47.6406 7.61233 48.2038 8.22829L48.2108 6.7911ZM41.8526 13.9747C41.8414 14.8559 42.1738 15.7063 42.7781 16.342C43.0698 16.6448 43.4203 16.8835 43.8077 17.0431C44.2229 17.2154 44.6685 17.3005 45.1173 17.2931C45.5534 17.2954 45.9854 17.2088 46.3875 17.0384C46.7756 16.8789 47.1269 16.6402 47.4195 16.3373C47.7079 16.0323 47.9426 15.6799 48.1136 15.2951C48.2921 14.8973 48.3829 14.4652 48.3797 14.0285C48.3849 13.589 48.2982 13.1534 48.1252 12.7502C47.9567 12.3598 47.7217 12.0023 47.431 11.6939C47.1383 11.3912 46.7871 11.1525 46.3991 10.9928C45.9932 10.8212 45.5573 10.7338 45.1173 10.7358C44.6718 10.73 44.2297 10.8142 43.817 10.9835C43.4297 11.1432 43.0791 11.3818 42.7873 11.6846C42.4954 11.9813 42.2601 12.3299 42.0932 12.7128C41.9253 13.1114 41.8433 13.5416 41.8526 13.9747Z" fill="#4FBD94"/>
<path d="M61.2996 11.0439V21.2445H56.251V11.0439H54.5781V6.79078H56.251V2.45117H61.2996V6.79078H64.1732V11.0439H61.2996Z" fill="#4FBD94"/>
<path d="M69.3738 14.8768C69.3738 17.0735 70.3965 18.1726 72.4418 18.1742C72.9377 18.1975 73.4306 18.0844 73.8678 17.8469C74.3051 17.6094 74.6703 17.2565 74.9245 16.8258H79.8065C78.8208 20.1286 76.359 21.78 72.421 21.78C71.291 21.7938 70.1674 21.6079 69.1008 21.2308C68.1442 20.8931 67.2662 20.361 66.5209 19.6675C65.8026 18.9884 65.2362 18.1622 64.8597 17.2441C64.4584 16.2424 64.2594 15.1698 64.2743 14.0893C64.2589 12.9787 64.448 11.8748 64.8319 10.834C65.1794 9.90539 65.7225 9.06416 66.4238 8.36857C67.1381 7.67629 67.9887 7.14362 68.9203 6.80519C69.9804 6.42445 71.0994 6.23845 72.2243 6.25602C73.3364 6.23885 74.4425 6.4249 75.489 6.80519C76.4143 7.14463 77.253 7.68831 77.9439 8.39662C78.634 9.12268 79.1577 9.99306 79.4779 10.9462C79.8455 12.0391 80.0247 13.1876 80.0078 14.3417V14.8768H69.3738ZM75.2854 11.9183C75.143 11.2452 74.7803 10.6402 74.2558 10.2007C73.708 9.78382 73.042 9.55602 72.3562 9.55097C71.6703 9.54592 71.0011 9.76389 70.4474 10.1727C69.939 10.6215 69.6099 11.2421 69.5219 11.9183H75.2947H75.2854Z" fill="#4FBD94"/>
<path d="M0 27.2197H8.14438C10.0802 27.2197 11.5456 27.6871 12.5405 28.6219C13.5354 29.5566 14.0375 30.9089 14.0467 32.6787C14.0801 33.6011 13.8836 34.5171 13.4752 35.3428C13.0587 36.0827 12.4571 36.6991 11.7307 37.1305C12.4288 37.2562 13.1027 37.4928 13.7274 37.8316C14.2458 38.1163 14.7009 38.5052 15.0648 38.9743C15.4103 39.426 15.6621 39.9434 15.8052 40.4956C15.9595 41.0835 16.0373 41.6892 16.0366 42.2974C16.0534 43.2075 15.8784 44.1109 15.5229 44.9474C15.192 45.6985 14.6959 46.3635 14.0722 46.8917C13.404 47.4393 12.6302 47.8404 11.8001 48.0695C10.8211 48.3445 9.80832 48.4775 8.79223 48.4644H0V27.2197ZM5.46738 35.5601H6.47848C8.19065 35.5601 9.04597 34.8746 9.04442 33.5036C9.04288 32.1327 8.18757 31.4472 6.47848 31.4472H5.46738V35.5601ZM5.46738 44.1809H6.6659C8.04334 44.1809 9.02977 44.0025 9.62517 43.6458C10.2206 43.289 10.5175 42.7157 10.516 41.9258C10.516 41.1375 10.219 40.5649 9.62517 40.2082C9.03131 39.8514 8.04489 39.673 6.6659 39.673H5.46738V44.1809Z" fill="#010101"/>
<path d="M17.0242 41.1108C17.0171 40.075 17.2368 39.0504 17.6674 38.1102C18.09 37.1867 18.6974 36.3616 19.4513 35.6869C20.25 34.98 21.173 34.4306 22.1723 34.0674C23.2763 33.6634 24.4432 33.4632 25.6174 33.4762C26.7812 33.4652 27.9379 33.6606 29.0348 34.0534C30.0378 34.4096 30.965 34.9543 31.7674 35.6588C32.5337 36.3369 33.1475 37.1727 33.5674 38.1102C34.0034 39.098 34.2221 40.1696 34.2084 41.251C34.2216 42.3374 33.9964 43.4132 33.5489 44.4012C33.1231 45.3345 32.5101 46.1684 31.7488 46.8502C30.9463 47.5603 30.0119 48.1021 29.0001 48.444C27.8829 48.8278 26.7095 49.0182 25.5295 49.0072C24.3713 49.0193 23.2198 48.8287 22.126 48.444C21.1315 48.0932 20.2166 47.5449 19.4351 46.8315C18.6802 46.1334 18.0774 45.2843 17.6651 44.3381C17.2274 43.3203 17.009 42.2203 17.0242 41.1108ZM22.3458 41.1669C22.3397 41.6272 22.4304 42.0836 22.6119 42.5059C22.7787 42.8972 23.0138 43.255 23.306 43.5622C23.599 43.8646 23.9502 44.1032 24.3379 44.2633C24.7414 44.4321 25.1738 44.519 25.6105 44.519C26.0472 44.519 26.4796 44.4321 26.883 44.2633C27.2704 44.1037 27.6209 43.8651 27.9127 43.5622C28.204 43.2543 28.439 42.8967 28.6068 42.5059C28.7845 42.0924 28.8744 41.6458 28.8705 41.1949C28.8727 40.7541 28.7828 40.3177 28.6068 39.9143C28.4391 39.5229 28.2041 39.1645 27.9127 38.8557C27.6204 38.5536 27.27 38.315 26.883 38.1546C26.0676 37.8168 25.1533 37.8168 24.3379 38.1546C23.9506 38.3156 23.5996 38.5541 23.306 38.8557C23.016 39.1603 22.7811 39.5139 22.6119 39.9003C22.4355 40.2985 22.3471 40.7307 22.3527 41.1669H22.3458Z" fill="#010101"/>
<path d="M35.196 41.1108C35.1893 40.0753 35.4081 39.0509 35.8369 38.1102C36.2604 37.1866 36.8686 36.3615 37.6231 35.6869C38.4215 34.9795 39.3446 34.4301 40.3441 34.0674C41.4481 33.6634 42.6151 33.4632 43.7893 33.4762C44.9515 33.4653 46.1067 33.6607 47.202 34.0534C48.2057 34.4096 49.1337 34.9543 49.9369 35.6588C50.7032 36.3364 51.3163 37.1724 51.7347 38.1102C52.1714 39.0979 52.3909 40.1694 52.3779 41.251C52.3924 42.3069 52.1806 43.3534 51.7568 44.3187C51.3331 45.284 50.7075 46.1452 49.923 46.8432C49.1205 47.5533 48.1861 48.0951 47.1743 48.437C46.0571 48.8208 44.8837 49.0112 43.7037 49.0002C42.5455 49.0125 41.3939 48.8219 40.3001 48.437C39.3049 48.0896 38.389 47.5436 37.6069 46.8315C36.8514 46.1335 36.2478 45.2844 35.8346 44.3381C35.3988 43.3198 35.1812 42.22 35.196 41.1108ZM40.5176 41.1669C40.5116 41.6272 40.6023 42.0836 40.7837 42.5059C40.9505 42.8972 41.1856 43.255 41.4778 43.5622C41.7704 43.8651 42.1217 44.1038 42.5098 44.2633C42.9131 44.4324 43.3456 44.5194 43.7823 44.5194C44.2191 44.5194 44.6515 44.4324 45.0549 44.2633C45.4433 44.1044 45.7947 43.8656 46.0868 43.5622C46.3782 43.2543 46.6132 42.8967 46.7809 42.5059C46.9587 42.0924 47.0485 41.6458 47.0447 41.1949C47.0469 40.7541 46.957 40.3177 46.7809 39.9143C46.6132 39.5229 46.3782 39.1645 46.0868 38.8557C45.794 38.5531 45.4428 38.3144 45.0549 38.1546C44.2396 37.8163 43.3251 37.8163 42.5098 38.1546C42.1222 38.315 41.771 38.5536 41.4778 38.8557C41.1879 39.1603 40.9529 39.5139 40.7837 39.9003C40.6073 40.2985 40.5189 40.7307 40.5246 41.1669H40.5176Z" fill="#010101"/>
<path d="M58.4119 27.2412V39.2225L63.7103 34.0112H70.6307L63.4581 40.6877L71.0472 48.4649H63.9625L58.4096 42.5759V48.4649H53.3633V27.2412H58.4119Z" fill="#010101"/>
<path d="M76.6488 48.3481C76.0832 48.3481 75.5303 48.1787 75.06 47.8613C74.5897 47.5439 74.2232 47.0928 74.0067 46.565C73.7903 46.0372 73.7337 45.4565 73.844 44.8962C73.9544 44.3359 74.2267 43.8212 74.6267 43.4173C75.0266 43.0133 75.5362 42.7382 76.0909 42.6268C76.6457 42.5153 77.2207 42.5725 77.7432 42.7912C78.2658 43.0098 78.7124 43.38 79.0267 43.855C79.3409 44.33 79.5086 44.8884 79.5086 45.4597C79.5074 46.2254 79.2057 46.9593 78.6697 47.5007C78.1336 48.0421 77.4069 48.3469 76.6488 48.3481ZM76.6488 42.9101C76.1496 42.9101 75.6615 43.0597 75.2464 43.3398C74.8313 43.62 74.5078 44.0181 74.3167 44.484C74.1256 44.9499 74.0757 45.4625 74.1731 45.9571C74.2705 46.4516 74.5109 46.9059 74.8639 47.2625C75.2169 47.6191 75.6667 47.8619 76.1564 47.9603C76.646 48.0586 77.1536 48.0081 77.6149 47.8152C78.0761 47.6222 78.4703 47.2954 78.7477 46.8761C79.0251 46.4569 79.1731 45.9639 79.1731 45.4597C79.1719 44.7839 78.9056 44.1361 78.4324 43.6582C77.9593 43.1804 77.318 42.9114 76.6488 42.9101Z" fill="#010101"/>
<path d="M76.6513 48.4646C76.0628 48.4646 75.4875 48.2883 74.9982 47.9581C74.5089 47.6279 74.1275 47.1585 73.9023 46.6094C73.6771 46.0603 73.6181 45.456 73.733 44.8731C73.8478 44.2901 74.1312 43.7546 74.5473 43.3343C74.9634 42.914 75.4936 42.6278 76.0708 42.5118C76.648 42.3959 77.2462 42.4554 77.7899 42.6829C78.3336 42.9103 78.7983 43.2955 79.1253 43.7897C79.4522 44.2839 79.6267 44.865 79.6267 45.4593C79.6255 46.256 79.3116 47.0197 78.7539 47.583C78.1961 48.1463 77.44 48.4634 76.6513 48.4646ZM76.6513 42.6878C76.1085 42.6878 75.578 42.8503 75.1267 43.1549C74.6755 43.4594 74.3237 43.8923 74.116 44.3987C73.9083 44.9052 73.854 45.4624 73.9599 46.0001C74.0658 46.5377 74.3271 47.0315 74.7109 47.4191C75.0947 47.8067 75.5836 48.0707 76.1159 48.1777C76.6482 48.2846 77.2 48.2297 77.7014 48.0199C78.2028 47.8102 78.6314 47.4549 78.9329 46.9991C79.2344 46.5434 79.3954 46.0075 79.3954 45.4593C79.3941 44.7247 79.1046 44.0204 78.5903 43.5009C78.0759 42.9814 77.3787 42.689 76.6513 42.6878ZM76.6513 48.1257C76.1291 48.1257 75.6187 47.9694 75.1846 47.6764C74.7504 47.3834 74.412 46.967 74.2122 46.4797C74.0124 45.9925 73.9601 45.4564 74.062 44.9392C74.1639 44.4219 74.4153 43.9468 74.7845 43.5739C75.1537 43.201 75.6241 42.9471 76.1362 42.8442C76.6483 42.7413 77.1791 42.7941 77.6615 42.9959C78.1439 43.1977 78.5562 43.5395 78.8463 43.978C79.1364 44.4165 79.2912 44.932 79.2912 45.4593C79.29 46.1661 79.0115 46.8436 78.5167 47.3434C78.0218 47.8432 77.351 48.1245 76.6513 48.1257ZM76.6513 43.0266C76.1749 43.0266 75.7092 43.1693 75.3131 43.4366C74.917 43.7039 74.6083 44.0839 74.426 44.5284C74.2437 44.9729 74.196 45.462 74.2889 45.9339C74.3819 46.4058 74.6113 46.8393 74.9481 47.1795C75.285 47.5198 75.7141 47.7514 76.1814 47.8453C76.6486 47.9392 77.1329 47.891 77.573 47.7069C78.0131 47.5228 78.3893 47.2109 78.6539 46.8109C78.9186 46.4108 79.0599 45.9405 79.0599 45.4593C79.0592 44.8143 78.8053 44.1959 78.3537 43.7398C77.9022 43.2838 77.2899 43.0273 76.6513 43.0266Z" fill="#010101"/>
<path d="M75.8711 43.9527C76.0924 43.9118 76.3171 43.8923 76.5421 43.8943C76.8235 43.8683 77.104 43.9519 77.3264 44.128C77.3964 44.1942 77.4517 44.2747 77.4884 44.3641C77.5251 44.4536 77.5424 44.55 77.5393 44.6468C77.542 44.8041 77.4934 44.9579 77.401 45.0846C77.3086 45.2113 77.1775 45.3038 77.028 45.3478V45.3595C77.1366 45.4085 77.2305 45.4854 77.3004 45.5826C77.3702 45.6798 77.4135 45.7939 77.4259 45.9134C77.4736 46.1693 77.5441 46.4204 77.6365 46.6635H77.2778C77.1973 46.4516 77.1369 46.2326 77.0974 46.0092C77.0164 45.6329 76.866 45.4904 76.5536 45.4787H76.2251V46.6635H75.8757L75.8711 43.9527ZM76.2205 45.1983H76.5837C76.9562 45.1983 77.1946 44.9926 77.1946 44.6795C77.1946 44.3266 76.94 44.17 76.5698 44.1677C76.454 44.1643 76.3383 44.1753 76.2251 44.2004L76.2205 45.1983Z" fill="#010101"/>
<path d="M77.8332 46.7681H77.2085L77.1761 46.7097C77.0853 46.489 77.0201 46.2585 76.9818 46.0226C76.9054 45.6604 76.7805 45.5926 76.5468 45.5833H76.3386V46.7681H75.7578V43.8563L75.848 43.8376C76.0771 43.7957 76.3094 43.7753 76.5422 43.7769C76.8508 43.7475 77.1588 43.8387 77.4029 44.0316C77.4854 44.1083 77.5507 44.2021 77.5942 44.3065C77.6377 44.4109 77.6585 44.5236 77.6551 44.6369C77.6581 44.7803 77.6236 44.922 77.5549 45.0476C77.4862 45.1732 77.3859 45.2782 77.2641 45.3519C77.4082 45.4927 77.5046 45.676 77.5394 45.8754C77.5861 46.1212 77.6527 46.3627 77.7384 46.5975L77.8332 46.7681ZM77.352 46.5344H77.47C77.426 46.3942 77.3774 46.1932 77.3173 45.9268C77.2571 45.6604 77.1507 45.5132 76.9934 45.4594L76.9147 45.4314V45.2631L76.9934 45.2257C77.1191 45.1886 77.2295 45.111 77.3076 45.0047C77.3857 44.8984 77.4273 44.7692 77.426 44.6369C77.4289 44.5565 77.4149 44.4765 77.385 44.4019C77.3551 44.3274 77.31 44.2602 77.2525 44.2045C77.0486 44.0533 76.7962 43.9841 76.5445 44.0106C76.3587 44.0094 76.173 44.0227 75.9892 44.0503V46.5344H76.1072V45.3496H76.5514C76.9286 45.3636 77.116 45.5436 77.2085 45.9736C77.234 46.0857 77.3011 46.3942 77.352 46.5344ZM76.5861 45.3146H76.1234V44.1111L76.2067 44.0853C76.3307 44.0596 76.4572 44.0478 76.5838 44.0503C77.0466 44.0503 77.3242 44.284 77.3242 44.6789C77.3242 45.0739 77.0142 45.3146 76.5861 45.3146ZM76.3548 45.0809H76.5861C76.8939 45.0809 77.0836 44.9266 77.0836 44.6789C77.0836 44.4312 76.9124 44.2863 76.5746 44.284C76.4973 44.2831 76.42 44.287 76.3432 44.2957L76.3548 45.0809Z" fill="#010101"/>
</g>
<defs>
<clipPath id="clip0_1015_17821">
<rect width="80" height="49" fill="white"/>
</clipPath>
</defs>
</svg>
